/* XPM */
static char *_ebb0152c5e643abab91f7ba23fd6585[] = {
/* columns rows colors chars-per-pixel */
"64 64 124 2 ",
"   c None",
".  c #000E15",
"X  c #001017",
"o  c #03161C",
"O  c #04191E",
"+  c #041D21",
"@  c #081B21",
"#  c #052325",
"$  c #0F2127",
"%  c #072728",
"&  c #072929",
"*  c #092E2D",
"=  c #14252B",
"-  c #18292F",
";  c #09302E",
":  c #1D2E33",
">  c #0A3633",
",  c #0B3A35",
"<  c #25353B",
"1  c #29393E",
"2  c #0D423B",
"3  c #0E493F",
"4  c #2E3D42",
"5  c #0F4C41",
"6  c #105145",
"7  c #115749",
"8  c #125B4C",
"9  c #314045",
"0  c #38474C",
"q  c #20584E",
"w  c #146352",
"e  c #156855",
"r  c #166E59",
"t  c #1A6A58",
"y  c #17715C",
"u  c #18735D",
"i  c #226D5C",
"p  c #1A7D64",
"a  c #2A7363",
"s  c #267A66",
"d  c #445256",
"f  c #475458",
"g  c #49565A",
"h  c #4B595D",
"j  c #556266",
"k  c #576468",
"l  c #59666A",
"z  c #526969",
"x  c #5F6A6E",
"c  c #616C70",
"v  c #6D767A",
"b  c #727C7F",
"n  c #1B8166",
"m  c #1C856A",
"M  c #1C8B6D",
"N  c #1D8F70",
"B  c #1F9474",
"V  c #23866C",
"C  c #209676",
"Z  c #219C7A",
"A  c #22A07D",
"S  c #737E81",
"D  c #23A580",
"F  c #24AB84",
"G  c #26B58A",
"H  c #2CB28B",
"J  c #27B98E",
"K  c #28BA8F",
"L  c #29BF92",
"P  c #768083",
"I  c #788285",
"U  c #7C8689",
"Y  c #27C394",
"T  c #29C295",
"R  c #2AC798",
"E  c #2BCB9A",
"W  c #2CD09E",
"Q  c #2ED7A3",
"!  c #2ED9A4",
"~  c #3FDCAB",
"^  c #4FDFB2",
"/  c #51DFB3",
"(  c #58DEB5",
")  c #78D7BA",
"_  c #51E0B3",
"`  c #5FE0B8",
"'  c #64E1BA",
"]  c #6AE2BD",
"[  c #7EDDC0",
"{  c #828B8D",
"}  c #868E91",
"|  c #879092",
" . c #899194",
".. c #8E9799",
"X. c #949B9E",
"o. c #969DA0",
"O. c #9BA3A5",
"+. c #A7ADAF",
"@. c #ACB1B3",
"#. c #B3B8B9",
"$. c #9FC6BC",
"%. c #BED7D1",
"&. c #80E6C7",
"*. c #96EBD0",
"=. c #B2EEDB",
"-. c #B7F2DF",
";. c #C5C7C9",
":. c #C6C9CB",
">. c #CACDCE",
",. c #CED2D3",
"<. c #D3D6D7",
"1. c #C3E3DA",
"2. c #CDEDE3",
"3. c #DDE0E0",
"4. c #D6F8ED",
"5. c #DCF8EF",
"6. c #E4E6E7",
"7. c #E7E8E9",
"8. c #EAEBEB",
"9. c #E3FAF2",
"0. c #EBFCF6",
"q. c #F6F7F6",
"w. c #F7FCFA",
"e. c #FFFFFF",
/* pixels */
"                                                    Q Q ! Q Q ! Q Q ! Q Q Q                                                     ",
"                                            Q Q Q Q Q ! ! ! ! ! ! ! ! ! ! Q Q Q Q Q                                             ",
"                                        Q Q ! Q ! ! Q R L F D Z A D F K R Q ! ! ! Q Q !                                         ",
"                                  Q Q Q ! ! Q L Z u 6 > & # @ O @ + # & > 6 u Z L Q ! ! Q Q Q                                   ",
"                                Q Q ! ! R C 8 * O o o o o o o o O o o o o o o o * 8 C R ! Q Q Q                                 ",
"                            Q Q ! Q L n , O o o o o o o o o o o o o o o o o o o o o O , s T ! ! Q Q                             ",
"                          Q Q ! R V > o o o o o o o o o o o o o o o o o o o o o o o o o o > V E ! Q Q                           ",
"                      Q Q ! Q F 5 O o o o o o o o o o o o o o o o o O o o o o o o o o o o o o 5 F Q ! Q Q                       ",
"                    Q Q ! E m & o o o o o o o O o o O o o o o o o o O o o o o o o o o o o o o o % m W ! Q Q                     ",
"                  Q Q ! R w O o o o o o o o o o o o o o o O o o o o o o o o o o o O o o o o o o o O w T ! Q Q                   ",
"                Q Q ! L 6 o o o o o o o O o o o o o o o o o o o O o o o o O o o o o o o o o o o o o o 6 T ! Q Q                 ",
"              Q Q ! T 5 o o o o o o o O o o O o o o o o o O o o o o o o o o o o o o o o o o o o o o o o 5 L ! Q Q               ",
"              Q ! R 6 o o o o o o o o o o O o o o o o o o o o o o o o o o O o o o o o o o o o o o o o o o 6 T ! !               ",
"            ! Q W w o o o o o o o o o o o o o o o O o o o o o o o o o o o o o o o o o o o o o o o o o o o o w W Q Q             ",
"          Q Q Q n @ o o o o o o o o o o o o o o o O o o o o o o o O o o o o o O o o o o o o o o o o o o o o @ n Q Q Q           ",
"          Q ! F % o o o o o o o o O o o o o o o o o o o o o o o o o o o o o o o o o o o @ O o O o o o o o o o % F ! Q           ",
"        Q Q E 5 o o o o o o o o o o o o o o o o o o o o o o o o o o o o o o o o o o o O o o o o o o o o o o o o 5 E ! Q         ",
"      Q ! ! m O o o o o o o o o o o o o o o o O o o o o o o o o o o o o o o o o o o o o o o o o O o o o O o o o o m ! ! Q       ",
"      Q ! T > o o o o o o o X X o X o X o X o X o X X o o X o o o o o o o o + * > , 2 , ; # o o o o o o o o o o o , L ! Q       ",
"      ! ! p o o o o o < S I I I I I P I P I I I I I P S v k 0 - o o o # 6 p D L E E E E T G B e , @ o o o o o o o o n ! Q       ",
"    Q Q R , o o o o o < 3.e.e.e.e.e.e.e.e.e.e.e.e.e.e.e.e.w.q.,.X.f r F W ! ! ! ! ! Q ! ! ! ! ! T B 5 O o o o o o o , R ! Q     ",
"    Q ! C O o o o o o o | e.e.e.e.e.e.e.e.e.e.e.e.e.e.e.e.e.e.e.e.q.-._ Q Q ! Q ! ! Q Q Q Q Q Q ! ! E n # o o o o o O C ! !     ",
"  Q Q Q 8 o o o o o o o 9 7.e.e.e.e.e.e.e.e.e.e.e.e.e.e.e.e.e.e.e.e.e.4.] Q Q ! ! ! ! ! ! Q Q ! Q Q ! Z # o o o o o o 7 Q Q Q   ",
"  Q Q L * o o o o o o o @ O.e.e.e.e.e.e.e.e.e.e.e.e.e.e.e.e.e.e.e.e.e.e.9.( Q R G F D G T W ! ! Q ! F > o o o o o o o * L ! Q   ",
"  Q ! Z O o o o o o o o o 4 { } O.q.e.e.e.w.+.} } } }  .o.>.0.e.e.e.e.e.e.2.a > # + + # * 5 p J ! H , o o O o o o o o o Z ! Q   ",
"  Q ! u o o o o o o o o o o o . 4 7.e.e.e.q.d . o o X o & H ^ *.0.e.e.e.e.e.S o o o o o o o o * u 3 o o o o o O o o o o u Q Q   ",
"Q Q Q 6 o o o o o o o o o o o o 4 8.e.e.e.q.f o o o o o y Q Q Q ] 0.e.e.e.e.<.: o o o o o o o o o o o o o o o o o o o o 6 W Q Q ",
"Q Q R > o o o o o o O o o o o o 4 7.e.e.e.q.f X o o o # G ! Q Q Q ) w.e.e.e.w.k o o o o o o o o o o o o o O o o o O o o , E ! Q ",
"Q ! L & o o o o o O o o o O o o 4 8.e.e.e.q.f o o o o 3 E Q Q Q Q s ;.e.e.e.e. .o o o o o o o o o o o o o o o O o o o o & K ! Q ",
"! ! F # o o o o o o o O o o o X 4 8.e.e.e.q.f X o o o r ! Q ! ! L * } e.e.e.e.#.@ o o o o o o o o o o o o o o o o o o o # F ! Q ",
"Q ! D @ o o o o o o o o o o o o 4 8.e.e.e.q.f o o o o m ! Q Q ! A o x e.e.e.e.:.= o o o o O O o o o o o o o o o o o o O @ D ! Q ",
"Q ! A O o o o o o O o o o o o o 4 8.e.e.e.q.f o o O o C ! ! Q ! B o h w.e.e.e.<.= o o o o o o o o o o o O o o o o o o o O A ! Q ",
"! ! A O o o o o o o o o o o o o 4 8.e.e.e.q.f X o o o B ! Q Q ! B o h w.e.e.e.,.= o o o o o o o o o o O o o o o o o o o O A ! ! ",
"! ! D + o o o o o o o o o o o X 4 7.e.e.e.q.f o o o o m ! ! Q ! B o x e.e.e.e.;.$ o o o o o o o o o o o o o O o o o o o @ A ! Q ",
"Q ! F # o o o o o o o o o o o o 4 8.e.e.e.q.f X o o o y ! Q Q ! Y % { e.e.e.e.@.O o o o o o o o o o o o o o o o o O o o # F ! ! ",
"! ! K & o o o o o o o o o o o o 4 8.e.e.e.q.f X o o o 5 W ! Q Q Q i ;.e.e.e.e.{ o o o o o o o o o o o o o o O o o o o o & K ! ! ",
"Q ! R , o o o o o O o o o o o o 4 8.e.e.e.q.f o o o o & G Q Q Q Q ) q.e.e.e.q.f o o o o o o o o o o o o o o o o O o o X , E Q Q ",
"Q Q W 6 o o o o o o o o o o o o 4 8.e.e.e.q.f o o o o o p ! Q Q ( 9.e.e.e.e.>.- o o o o o o o o O ; O o o o o o o o o o 6 W ! Q ",
"  Q ! u o o o o o o O o o o o X 4 8.e.e.e.q.d . o X o . * J ~ [ 9.e.e.e.e.e.v o o o o o o o o % p J 2 o o o o o o o o o u ! Q   ",
"  Q ! Z O o O o o o o o o o o o 4 7.e.e.e.w.} k k l l c S $.4.e.e.e.e.e.e.1.8 # O o o o # , r G Q ! A % o o o O o o O O Z ! Q   ",
"  Q Q L ; o o o o o o O o o o o 4 8.e.e.e.e.e.e.e.e.e.e.e.e.e.e.e.e.e.e.5.( E J Z B M B F E Q ! ! Q Q p O o o o o o o * L ! Q   ",
"  Q Q Q 8 o o o O o o o o o o o 4 8.e.e.e.e.e.e.e.e.e.e.e.e.e.e.e.e.e.4.` Q ! ! ! ! ! ! ! ! Q Q Q Q ! E 2 o o o o o o 8 W Q Q   ",
"    Q ! C O o o o o o o o o O o 4 8.e.e.e.e.e.e.e.e.e.e.e.e.e.e.e.w.-./ Q Q ! ! Q Q ! ! Q Q Q Q ! ! E n # o O o O o O C ! Q     ",
"    Q ! R , o o o o o o o o o o 9 8.e.e.e.e.e.e.e.e.e.e.e.e.w.6.@.z V T ! ! ! ! ! Q Q Q Q ! ! ! E Z 6 O o O o o o o , T ! Q     ",
"      Q Q p o o o o + o o o o o : ..O.O.O.O.O.O.O.O.O.O.X.{ j 1 @ o o > r Z K E W ! ! Q E R F p 3 + o o O o o o o o s ! Q       ",
"      Q Q T > o o o o o o o o o o o o o o o o o o o o o . o X o o o o o o + * 2 6 8 8 7 3 > + o o o o o o o o o o > T ! !       ",
"      Q ! ! V O o o o o o o o o o o o o o o o o o o o o o o o o o o o o o o o o o o o X o o o o o o o o o o o o o m ! Q Q       ",
"        Q ! E 3 o o o o o o o o o o o o o o o o o o o o o o o o o o o o o o o o o o o o o o o o o o o o o o o o 5 E ! Q         ",
"          Q ! F % o o o o o o o o o O o o o o o o O o o o o O o o o O o o o o o o o o o o o o o o O o o o o o % F Q Q           ",
"          Q Q Q n O o o o o O o o o o o o o o o o o o o o o o o o o o o o o o o o o o O o O o o o o o o o o O n Q Q Q           ",
"            Q ! W w o o o o o o o o o O o o O o o o o o o o o O O o o o O o O o o o o o o o o o o O o o o o w W Q Q             ",
"              Q ! T 6 o o o o o o o o o o o o o o O o o o o o o o o O o o o o o O o o o o o o o o o o o o 6 R ! Q               ",
"              Q Q ! L 5 o o o o o o o o o o o o o O o o o o o o o o O o o o o o o o o o o o o o o o o o 3 T ! Q Q               ",
"                Q Q ! T 6 o o o o o o o o o o o o o o O o o o o o o o o o o o o o o o o o o O o o o o 6 T Q Q Q                 ",
"                  Q Q ! R w @ o o o o o O o o o o o o o o o o o o o o o O o o o o o o o o o o o o O w E Q Q Q                   ",
"                    Q Q ! W n % o o o o o o o o o O o o O o o o o o o o o o o o o o O o o o o o % n W Q Q Q                     ",
"                      Q Q ! Q F 6 o o o o o o o o o o o o o o o O o o o o o o o o o o o o o o 5 F Q ! Q !                       ",
"                          Q Q ! R V > o o o o o o o o o o O o o o o o o O o o o o o o o o > V E ! Q Q                           ",
"                            Q Q ! Q T n , O o o o o o o o o o o o o o o o o o o o o @ , p T Q ! Q Q                             ",
"                                Q Q ! ! R C 8 * O o o o o o o o o o o o o o o O * 8 C R ! ! Q Q                                 ",
"                                  Q Q Q ! ! Q L Z u 6 , & # @ O @ @ # % > 6 t Z L Q ! Q Q Q Q                                   ",
"                                        Q Q Q ! ! ! W R L F A A A D F K T Q ! ! ! ! Q Q                                         ",
"                                            Q Q Q Q Q ! ! ! ! ! ! ! ! ! ! Q ! ! Q Q                                             ",
"                                                    Q Q Q ! ! Q Q Q ! Q Q Q                                                     "
};
