/* XPM */
static char *bcb5b28a6a27472edfa0ecc139701a72[] = {
/* columns rows colors chars-per-pixel */
"16 16 103 2 ",
"   c None",
".  c #001118",
"X  c #011219",
"o  c #001319",
"O  c #011319",
"+  c #00131A",
"@  c #02131A",
"#  c #00141A",
"$  c #01141A",
"%  c #02141A",
"&  c #03141A",
"*  c #03141B",
"=  c #02151B",
"-  c #03151C",
";  c #03161C",
":  c #04171D",
">  c #03181D",
",  c #03181E",
"<  c #041A1F",
"1  c #041B1F",
"2  c #051F22",
"3  c #081B21",
"4  c #0A1C22",
"5  c #0A1E23",
"6  c #0F1F25",
"7  c #062325",
"8  c #062426",
"9  c #062526",
"0  c #0D2729",
"q  c #0A292A",
"w  c #0F2A2C",
"e  c #0B2E2E",
"r  c #18292F",
"t  c #19292F",
"y  c #053631",
"u  c #063731",
"i  c #0B3C37",
"p  c #0C3E38",
"a  c #28383D",
"s  c #0B4139",
"d  c #0C413A",
"f  c #0D413A",
"g  c #0D453D",
"h  c #0C473E",
"j  c #2B3B40",
"k  c #2E3D42",
"l  c #2F3E43",
"z  c #0F4B41",
"x  c #104F43",
"c  c #115447",
"v  c #115548",
"b  c #115648",
"n  c #115649",
"m  c #135C4D",
"M  c #2E4749",
"N  c #334247",
"B  c #334347",
"V  c #344348",
"C  c #3B4A4E",
"Z  c #374E50",
"A  c #1A8066",
"S  c #1B8066",
"D  c #1E8D6F",
"F  c #1E9071",
"G  c #209978",
"H  c #22A27E",
"J  c #25B68B",
"K  c #27B78D",
"L  c #26BA8E",
"P  c #76AD9F",
"I  c #77AEA1",
"U  c #23C091",
"Y  c #29C093",
"T  c #29C194",
"R  c #29C294",
"E  c #2AC395",
"W  c #46C7A0",
"Q  c #45C8A1",
"!  c #61C1A5",
"~  c #68C4A9",
"^  c #8F9699",
"/  c #909699",
"(  c #A5ABAD",
")  c #A8AEB0",
"_  c #A2B6B3",
"`  c #ABB1B3",
"'  c #A5BAB7",
"]  c #B1B7B9",
"[  c #BEC2C4",
"{  c #BFC3C5",
"}  c #B2D0C9",
"|  c #B4D5CC",
" . c #CDD1D2",
".. c #D6D5D7",
"X. c #D7D6D8",
"o. c #DEE0E1",
"O. c #DFE1E2",
"+. c #D8F9EF",
"@. c #DAFAF0",
"#. c #E1E4E4",
"$. c #E8E9EA",
"%. c #ECEEEE",
"&. c #EDEEEF",
/* pixels */
"          Y H F F H Y           ",
"      E S f 7 < < 7 f S E       ",
"    K n > @ - ; ; - @ > b K     ",
"  E v . o o o $ = @ @ @ @ b E   ",
"  A 5 l B N V a 0 s c g 8 , S   ",
"Y d 6 ` &.$.O.O.} W L R D 1 f Y ",
"H 7 = a  .) Z ~ @.' e p p ; 7 H ",
"F < - 3 [ ^ y U I X.t X * ; < F ",
"F < - 4 { / u U P ..r O & ; < F ",
"H 7 = 4 { ( M ! +._ q i x > 7 H ",
"Y f @ 4 ] %.o.#.| Q J T G 2 d Y ",
"  S > : j C C k w h m z 9 > S   ",
"  E b % + o o # = @ @ @ @ b E   ",
"    K b > @ - ; ; - @ > b K     ",
"      E S f 7 < < 7 f S E       ",
"          Y H F F H Y           "
};
