/* XPM */
static char *a3b93c215d3749feb6dc5ba299af8e2a[] = {
/* columns rows colors chars-per-pixel */
"32 32 205 2 ",
"   c None",
".  c #000F15",
"X  c #000F16",
"o  c #001016",
"O  c #001017",
"+  c #001118",
"@  c #001218",
"#  c #001319",
"$  c #00131A",
"%  c #02131A",
"&  c #00141A",
"*  c #01141A",
"=  c #02141A",
"-  c #03141A",
";  c #03141B",
":  c #02151B",
">  c #03151B",
",  c #03151C",
"<  c #03161C",
"1  c #03171C",
"2  c #03171D",
"3  c #03181D",
"4  c #04191E",
"5  c #011E21",
"6  c #031E21",
"7  c #041D21",
"8  c #051E21",
"9  c #051E22",
"0  c #051F22",
"q  c #081B21",
"w  c #0B1E24",
"e  c #0D1F25",
"r  c #022022",
"t  c #032123",
"y  c #062325",
"u  c #042526",
"i  c #062627",
"p  c #0E2026",
"a  c #042827",
"s  c #072828",
"d  c #072829",
"f  c #072A2A",
"g  c #082D2C",
"h  c #082E2D",
"j  c #082F2D",
"k  c #102228",
"l  c #15262C",
"z  c #16272D",
"x  c #18292F",
"c  c #182A2F",
"v  c #0A3532",
"b  c #0B3834",
"n  c #243439",
"m  c #0D413A",
"M  c #0D423A",
"N  c #0D433B",
"B  c #0E473E",
"V  c #2F3E43",
"C  c #303F44",
"Z  c #105145",
"A  c #105246",
"S  c #115548",
"D  c #115749",
"F  c #11584A",
"G  c #135D4D",
"H  c #135F4F",
"J  c #304044",
"K  c #324146",
"L  c #38474C",
"P  c #3C494E",
"I  c #3D4C50",
"U  c #355956",
"Y  c #146050",
"T  c #146452",
"R  c #146453",
"E  c #156754",
"W  c #166C58",
"Q  c #166D59",
"!  c #176F5A",
"~  c #176F5B",
"^  c #17705B",
"/  c #18735D",
"(  c #3B655F",
")  c #1A7D64",
"_  c #435155",
"`  c #465458",
"'  c #485559",
"]  c #48555A",
"[  c #49565B",
"{  c #4C595D",
"}  c #4E5B5F",
"|  c #4F5B5F",
" . c #576468",
".. c #586569",
"X. c #5F6B6F",
"o. c #6F7A7D",
"O. c #717B7F",
"+. c #1B8167",
"@. c #1B8267",
"#. c #1B8368",
"$. c #1C866A",
"%. c #1C876B",
"&. c #1D8D6F",
"*. c #1E9172",
"=. c #1F9273",
"-. c #2A9276",
";. c #2B987A",
":. c #22A17D",
">. c #1FA680",
",. c #23A781",
"<. c #23A782",
"1. c #23A882",
"2. c #20AA82",
"3. c #24AB84",
"4. c #25AD86",
"5. c #25B188",
"6. c #26B289",
"7. c #27B78C",
"8. c #27B78D",
"9. c #27B98E",
"0. c #28BC90",
"q. c #28BE91",
"w. c #5B9688",
"e. c #6B9F93",
"r. c #57B198",
"t. c #5BBDA1",
"y. c #28C194",
"u. c #29C395",
"i. c #2AC395",
"p. c #2AC697",
"a. c #2AC899",
"s. c #2CCD9C",
"d. c #2CCE9D",
"f. c #2CCF9D",
"g. c #2DD3A0",
"h. c #2DD4A1",
"j. c #2ED5A2",
"k. c #2ED6A2",
"l. c #2ED6A3",
"z. c #2ED7A3",
"x. c #2ED8A3",
"c. c #2DD9A4",
"v. c #2ED8A4",
"b. c #2ED9A4",
"n. c #2FD9A5",
"m. c #2EDAA5",
"M. c #2FDAA5",
"N. c #2FDBA6",
"B. c #2FDCA6",
"V. c #2FDCA7",
"C. c #2FDDA7",
"Z. c #30DAA5",
"A. c #77E3C2",
"S. c #7AE5C4",
"D. c #858D90",
"F. c #889193",
"G. c #899194",
"H. c #8A9295",
"J. c #8C9296",
"K. c #A1A5A8",
"L. c #A1A5A9",
"P. c #ADB3B5",
"I. c #ABB4B5",
"U. c #B3BEBD",
"Y. c #BFC4C5",
"T. c #81E1C4",
"R. c #86E4C7",
"E. c #A4EED7",
"W. c #B0F0DC",
"Q. c #C3C8C9",
"!. c #C4C9CA",
"~. c #C7CBCD",
"^. c #C8CDCE",
"/. c #D5D8D9",
"(. c #D6D9DA",
"). c #E1E3E4",
"_. c #EAEBEB",
"`. c #EDEEEF",
"'. c #EDEFEF",
"]. c #EEEFEF",
"[. c #E3F0EC",
"{. c #E7F3F0",
"}. c #EEFEF9",
"|. c #F1F2F3",
" X c #F3F3F4",
".X c #F3F4F4",
"XX c #F3F4F5",
"oX c #F4F5F5",
"OX c #F5F6F6",
"+X c #F1FDF9",
"@X c #F4FDFA",
"#X c #F8F8F9",
"$X c #F8F9F9",
"%X c #FAF9FA",
"&X c #F8FAFA",
"*X c #F9FBFB",
"=X c #FAFBFB",
"-X c #FBFBFB",
";X c #FBFCFC",
":X c gray99",
">X c #FDFDFD",
",X c #FEFDFE",
"<X c #FDFEFE",
"1X c #FEFEFE",
"2X c white",
/* pixels */
"                        B.N.n.v.v.n.N.B.                        ",
"                  N.v.p.,.%.^ T R ^ %.<.p.v.N.                  ",
"              M.k.6.^ b 8 > % % % % > 8 b ^ 6.k.M.              ",
"            M.i.^ s = - , < < < < < < , - = s ^ i.M.            ",
"          b.3.m > > < < < < < < < < < < < < > > m 3.b.          ",
"        b.:.h % < < < < < < < < < < < < < < < < % h :.b.        ",
"      M.3.h = < < < < < < < < < < < < < < < < < < = h 3.M.      ",
"    M.u.m % < < < < < < < < < < < < < < < < < < < < % m u.M.    ",
"    k.^ > : # @ @ @ @ @ @ @ # * < > % % ; ; % % > < < > ^ k.    ",
"  M.6.s = k _ ] ' ' ' ' ' ` I n q t B Q +.#./ Z f > , > s 6.N.  ",
"  x.! = : z !.;X$X#X#X$X$X#XoX).I.r.f.m.V.V.M.g.8.W 7 < = ! v.  ",
"  p.b - < # O.=X>X2X2X:X-X-X,X2X2X}.S.a.9.7.p.l.N.&.7 , - b p.  ",
"B.<.9 , < : l [ P.2X.Xo.{ | e.W.@X2X{.( u i v E $.d > < , 8 <.B.",
"N.%.> < < < : o F.2X`.V . 5 >.Z.R.*X2XJ.= > ; ; 3 > < < < > %.N.",
"n.~ % < < < < $ H.2X].K + M s.c.;.^.2XQ.p : < < < < < < < % ~ n.",
"v.T % < < < < $ H.2X].K O D j.z.Y L.2X(.c : < < < < < < < % T v.",
"v.R % < < < < $ H.2X].K O F k.z.H K.2X/.x : < < < < < < < % T v.",
"n.^ % < < < < $ H.2X].K + N d.c.-.~.2XY.e : < < > < < < < % ~ n.",
"N.%.> < < < < $ H.2X'.C X r 2.b.T.&X2XD.* , ; = y 4 < < < > %.N.",
"B.<.9 , < < < $ H.2X|.X.L P w.E.+X2X[.U 6 0 g H 1.A ; < , 8 <.B.",
"  p.b - < < < # H.2X1XOX XXX%X2X2X}.A.y.4.3.q.h.C.5.d > - b p.  ",
"  x.! = < < < $ G.2X>X<X1X1X=X_.U.t.h.N.C.C.B.k.0.! 0 , = ! v.  ",
"  M.6.s > < < : J .. . . . .} V w a S ) *.=.@.G j > , > s 6.N.  ",
"    k.^ > < < < * @ @ @ @ @ @ & : > % ; 1 2 > % ; < < > ^ k.    ",
"    M.u.m % < < < < < < < < < < < < < < < < < < < < % m u.M.    ",
"      M.3.h = < < < < < < < < < < < < < < < < < < = h 3.M.      ",
"        b.:.h % < < < < < < < < < < < < < < < < % h :.b.        ",
"          b.3.m > > < < < < < < < < < < < < > > m 3.b.          ",
"            M.u.^ d = - , < < < < < < , - = s ^ u.M.            ",
"              M.k.6.^ b 8 > % % % % > 8 b ^ 6.k.M.              ",
"                  N.v.p.,.%.~ T T ~ %.<.p.v.N.                  ",
"                        B.N.n.v.v.n.N.B.                        "
};
